:version 1.10
:name ASF
:units
  mass 1
  length 1
  angle deg
:documentation
  ASF file generated by Kaydara
:root
  axis xyz
  order  tx ty tz rx ry rz
  position 0 0 0
  orientation 0 0 0
:bonedata
  begin
    id 1
    name LeftUpLegDummy
    direction 1 -2.30186e-007 -8.31532e-007
    length 2.93387
    axis 0 0 0 xyz
  end
  begin
    id 2
    name LeftUpLeg
    direction -1.82929e-007 -1 -1.48925e-009
    length 17.3336
    axis -3.48766 0.00143442 -0.000521554 xyz
    dof rx ry rz
  end
  begin
    id 3
    name LeftLeg
    direction -1.82929e-007 -1 -5.23717e-011
    length 14.9995
    axis 3.68178 -0.00654042 -0.000282425 xyz
    dof rx ry rz
  end
  begin
    id 4
    name LeftFoot
    direction 8.31532e-007 -4.54534e-011 1
    length 6.74421
    axis 1.87234e-006 4.66016e-005 -5.96866e-006 xyz
    dof rx ry rz
  end
  begin
    id 5
    name LeftToes
    direction 0.00818058 -0.00485161 0.999955
    length 3.85048
    axis 1.06247e-005 4.65869e-005 -5.96999e-006 xyz
    dof rx ry rz
  end
  begin
    id 6
    name SpineDummy
    direction -5.8607e-008 0.943407 -0.331637
    length 5.93572
    axis 0 0 0 xyz
  end
  begin
    id 7
    name Spine
    direction -1.04988e-007 0.999988 0.00495137
    length 10.1015
    axis -0.001389 0.000121417 6.61666e-006 xyz
    dof rx ry rz
  end
  begin
    id 8
    name Spine1
    direction 0 0 0
    length 0
    axis -0.001389 0.00012144 6.56766e-006 xyz
    dof rx ry rz
  end
  begin
    id 9
    name RightShoulderDummy
    direction -0.98348 0.17941 -0.0240696
    length 3.59882
    axis -0.001389 0.00012144 6.56766e-006 xyz
  end
  begin
    id 10
    name RightShoulder
    direction -0.978693 0.204882 0.0135597
    length 2.70001
    axis 0.215806 0.000203631 -0.00679732 xyz
    dof rx ry rz
  end
  begin
    id 11
    name RightArm
    direction -1 3.85509e-006 8.31394e-007
    length 10.2459
    axis -23.2009 -0.134239 -0.964098 xyz
    dof rx ry rz
  end
  begin
    id 12
    name RightForeArm
    direction -1 3.85569e-006 8.3129e-007
    length 8.16799
    axis -9.92322 0.0658061 0.17887 xyz
    dof rx ry rz
  end
  begin
    id 13
    name RightHand
    direction -0.992843 -0.0414604 0.112003
    length 5.28593
    axis -0.00960638 0.00330669 -0.185225 xyz
    dof rx ry rz
  end
  begin
    id 14
    name LeftShoulder1Dummy
    direction 0.983523 0.179172 -0.0240748
    length 3.59866
    axis -0.001389 0.00012144 6.56766e-006 xyz
  end
  begin
    id 15
    name LeftShoulder1
    direction 0.978627 0.205195 0.0135605
    length 2.70019
    axis -0.001389 0.00012144 6.57583e-006 xyz
    dof rx ry rz
  end
  begin
    id 16
    name LeftArm
    direction 1 3.51895e-006 -8.60188e-007
    length 10.2459
    axis -23.1894 0.134785 0.967513 xyz
    dof rx ry rz
  end
  begin
    id 17
    name LeftForeArm
    direction 1 3.51921e-006 -7.32029e-007
    length 8.16799
    axis -9.91835 -0.0656957 -0.177789 xyz
    dof rx ry rz
  end
  begin
    id 18
    name LeftHand
    direction 0.992938 -0.0411636 0.11126
    length 5.32135
    axis -0.00960237 -0.00340661 0.185177 xyz
    dof rx ry rz
  end
  begin
    id 19
    name HEadDummy
    direction 1.01974e-006 0.999861 -0.016675
    length 2.99946
    axis -0.001389 0.00012144 6.56766e-006 xyz
  end
  begin
    id 20
    name HEad
    direction -0.0222689 0.980941 0.193023
    length 5.12695
    axis -0.001389 0.00012144 6.56766e-006 xyz
    dof rx ry rz
  end
  begin
    id 21
    name RightUpLegDummy
    direction -1 2.30186e-007 8.31532e-007
    length 2.93387
    axis 0 0 0 xyz
  end
  begin
    id 22
    name RightUpLeg
    direction -1.82966e-007 -1 1.56832e-007
    length 17.3336
    axis -3.4909 -0.000906625 0.00028951 xyz
    dof rx ry rz
  end
  begin
    id 23
    name RightLeg
    direction -1.82786e-007 -1 -1.80317e-007
    length 14.9995
    axis 3.68513 0.0193739 -0.131021 xyz
    dof rx ry rz
  end
  begin
    id 24
    name RightFoot
    direction 8.31721e-007 -4.63324e-011 1
    length 6.74421
    axis 4.81691e-005 -0.120479 -0.188785 xyz
    dof rx ry rz
  end
  begin
    id 25
    name RightToes
    direction 0.00124746 -0.014064 0.9999
    length 3.85082
    axis 0.000481921 0.542163 -0.142575 xyz
    dof rx ry rz
  end
:hierarchy
  begin
    root LeftUpLegDummy SpineDummy RightUpLegDummy
    LeftUpLegDummy LeftUpLeg
    LeftUpLeg LeftLeg
    LeftLeg LeftFoot
    LeftFoot LeftToes
    SpineDummy Spine
    Spine Spine1
    Spine1 RightShoulderDummy LeftShoulder1Dummy HEadDummy
    RightShoulderDummy RightShoulder
    RightShoulder RightArm
    RightArm RightForeArm
    RightForeArm RightHand
    LeftShoulder1Dummy LeftShoulder1
    LeftShoulder1 LeftArm
    LeftArm LeftForeArm
    LeftForeArm LeftHand
    HEadDummy HEad
    RightUpLegDummy RightUpLeg
    RightUpLeg RightLeg
    RightLeg RightFoot
    RightFoot RightToes
  end

:SAMPLES-PER-SECOND 30
:FULLY-SPECIFIED
:DEGREES
245
root  -2.3912 33.4118 11.5524 5.30439 11.8179 -0.826726
LeftUpLeg  -23.4732 -7.06099 13.1718
LeftLeg  13.7927 -18.9914 -3.32275
LeftFoot  13.386 0.545603 -4.64689
LeftToes  -36.7629 1.85109e-006 5.31342e-008
Spine  3.08802 6.69012 -0.65541
Spine1  5.86712 13.8199 -1.39643
RightShoulder  0.147885 7.22684 10.1434
RightArm  -27.8647 -12.4049 67.5906
RightForeArm  37.9334 18.4942 3.36837
RightHand  0.930919 -12.2914 -8.25509
LeftShoulder1  -0.00272578 5.73734 -8.93302
LeftArm  -25.6345 27.8828 -67.9865
LeftForeArm  29.4729 -33.784 -6.76929
LeftHand  0.0261804 1.43555 1.71125
HEad  -14.8337 -10.9482 2.02836
RightUpLeg  -1.93769 -12.2108 -0.828445
RightLeg  15.2082 -7.01688 -1.42511
RightFoot  -9.61979 0.072382 1.23782
RightToes  -32.1228 -0.158809 -0.266446
246
root  -1.96115 33.3995 11.8676 5.56993 11.802 -0.167901
LeftUpLeg  -23.2705 -5.80696 11.4747
LeftLeg  14.7792 -19.9 -3.82125
LeftFoot  11.8107 0.448507 -4.3341
LeftToes  -37.014 1.85109e-006 5.31342e-008
Spine  3.06036 6.80587 -1.01584
Spine1  5.7825 14.0358 -2.07386
RightShoulder  0.137056 7.14209 10.1475
RightArm  -28.1217 -12.8689 68.4169
RightForeArm  38.0006 18.7146 3.41158
RightHand  0.900156 -12.1057 -8.09945
LeftShoulder1  -0.00199884 6.0359 -8.98365
LeftArm  -27.5631 28.4019 -67.2371
LeftForeArm  28.7082 -31.1825 -6.11906
LeftHand  0.0333343 1.94083 1.59208
HEad  -15.9105 -11.56 2.91638
RightUpLeg  -1.42231 -11.2474 -2.06395
RightLeg  15.2847 -7.95762 -1.62586
RightFoot  -9.65659 0.0870225 1.40785
RightToes  -32.6889 -0.162869 -0.270214
247
root  -1.52792 33.4216 12.1485 5.95455 12.0805 0.879334
LeftUpLeg  -23.3956 -5.17981 9.38174
LeftLeg  16.1448 -20.0834 -4.34192
LeftFoot  10.4218 0.354656 -3.88735
LeftToes  -35.1809 1.85109e-006 5.31342e-008
Spine  3.06256 6.88893 -1.52572
Spine1  5.73017 14.196 -3.05912
RightShoulder  0.127591 6.91291 10.4166
RightArm  -29.27 -13.4368 69.1392
RightForeArm  38.4126 18.7974 3.42745
RightHand  0.867509 -11.8568 -7.9653
LeftShoulder1  -0.00112875 5.95001 -8.93995
LeftArm  -30.5122 28.7426 -66.3855
LeftForeArm  28.5425 -28.5383 -5.49475
LeftHand  0.0381385 1.76964 2.09086
HEad  -17.0215 -12.4498 4.03212
RightUpLeg  -0.65588 -9.64743 -3.51397
RightLeg  14.6487 -9.81385 -1.88845
RightFoot  -9.07578 0.0991324 1.62666
RightToes  -33.5521 -0.169131 -0.27588
248
root  -1.08231 33.4616 12.3794 6.20676 11.8158 1.58083
LeftUpLeg  -23.626 -4.57863 7.73563
LeftLeg  17.9009 -19.8098 -4.91019
LeftFoot  9.14853 0.271553 -3.39318
LeftToes  -33.2896 1.85109e-006 5.31342e-008
Spine  3.14008 7.13779 -1.8837
Spine1  5.84735 14.6718 -3.72062
RightShoulder  0.115594 6.36644 10.6433
RightArm  -30.8192 -14.0396 69.5704
RightForeArm  38.4553 18.9463 3.45673
RightHand  0.848738 -11.5648 -7.99202
LeftShoulder1  -0.000111603 5.87058 -8.92456
LeftArm  -34.1448 29.0127 -65.8863
LeftForeArm  28.499 -26.6624 -5.07131
LeftHand  0.0430585 1.82053 2.13681
HEad  -18.5018 -13.4985 5.25799
RightUpLeg  -0.186164 -8.74515 -4.86271
RightLeg  14.3969 -10.5374 -1.9782
RightFoot  -8.12726 0.0843907 1.56553
RightToes  -35.1922 -0.181261 -0.286385
249
root  -0.598169 33.4937 12.5986 6.3936 10.2555 2.00442
LeftUpLeg  -23.8153 -4.45776 6.63941
LeftLeg  19.9145 -18.0383 -5.15374
LeftFoot  7.668 0.174557 -2.60427
LeftToes  -31.7827 1.85109e-006 5.31342e-008
Spine  3.19856 7.56191 -2.08008
Spine1  5.96194 15.4694 -4.03168
RightShoulder  0.0982508 5.91374 10.614
RightArm  -31.9223 -15.022 69.6608
RightForeArm  37.4656 19.4736 3.5621
RightHand  0.893668 -11.7356 -8.30463
LeftShoulder1  0.00105648 6.07538 -9.05497
LeftArm  -37.6694 29.6162 -65.7543
LeftForeArm  28.1923 -25.1205 -4.73409
LeftHand  0.0496043 1.89745 2.61522
HEad  -20.0376 -14.0615 6.07732
RightUpLeg  -0.108946 -8.88078 -6.4649
RightLeg  14.4767 -8.91872 -1.69023
RightFoot  -7.27685 0.0517024 1.19074
RightToes  -37.4915 -0.198761 -0.300518
250
root  -0.0835379 33.5213 12.8207 6.51395 7.28685 2.15085
LeftUpLeg  -23.7184 -3.41597 5.72773
LeftLeg  21.8167 -15.7826 -5.09312
LeftFoot  5.95262 0.0926035 -1.78094
LeftToes  -30.2431 1.85109e-006 5.31342e-008
Spine  3.22002 7.9763 -2.13373
Spine1  6.01111 16.2609 -4.08045
RightShoulder  0.0865574 5.54007 10.6141
RightArm  -32.3509 -15.9744 69.3809
RightForeArm  36.2791 20.2331 3.71483
RightHand  0.948421 -11.993 -8.63585
LeftShoulder1  0.00237941 6.61246 -9.33137
LeftArm  -40.3922 31.0287 -65.9104
LeftForeArm  27.6053 -24.2702 -4.5521
LeftHand  0.0568983 1.55584 3.80166
HEad  -21.4786 -13.3521 6.49844
RightUpLeg  -0.0307787 -7.95062 -7.98069
RightLeg  13.7683 -6.8352 -1.21055
RightFoot  -5.99879 0.019923 0.757867
RightToes  -40.1202 -0.219444 -0.3158
251
root  0.488435 33.5432 13.0173 6.56574 2.99356 2.236
LeftUpLeg  -23.5571 -2.02635 4.8165
LeftLeg  23.8817 -12.6612 -4.61339
LeftFoot  4.04502 0.0347068 -0.982788
LeftToes  -28.6589 1.85109e-006 5.31342e-008
Spine  3.18703 8.23018 -2.11041
Spine1  5.95654 16.7351 -4.00003
RightShoulder  0.0759596 5.00144 10.684
RightArm  -33.1645 -16.5745 69.0462
RightForeArm  36.2029 21.0879 3.8873
RightHand  0.934321 -11.8457 -8.6131
LeftShoulder1  0.00386107 6.82429 -9.73425
LeftArm  -42.1942 33.8235 -66.2883
LeftForeArm  26.8457 -24.7103 -4.6464
LeftHand  0.0410251 1.01137 4.24646
HEad  -22.57 -11.3193 6.6332
RightUpLeg  -0.549322 -6.11341 -9.58372
RightLeg  13.3937 -4.54175 -0.774808
RightFoot  -4.78607 0.0014233 0.411668
RightToes  -42.0398 -0.234979 -0.326352
252
root  1.11142 33.5668 13.1649 6.61923 -2.73996 2.00182
LeftUpLeg  -23.2801 0.496469 4.0277
LeftLeg  25.766 -9.18886 -3.7102
LeftFoot  2.00077 0.00636381 -0.364451
LeftToes  -26.7068 1.85109e-006 5.31342e-008
Spine  3.13052 8.2641 -1.89498
Spine1  5.89196 16.7533 -3.53789
RightShoulder  0.0623429 4.29561 10.7143
RightArm  -33.4005 -16.7937 68.5971
RightForeArm  35.6791 22.6326 4.20473
RightHand  0.990826 -12.2013 -8.87577
LeftShoulder1  0.00550536 6.81872 -10.0832
LeftArm  -44.2851 37.5185 -67.4791
LeftForeArm  26.6437 -26.0268 -4.93188
LeftHand  -0.0257398 -0.555533 4.99814
HEad  -23.7471 -7.63726 6.21144
RightUpLeg  -1.9693 -3.79811 -11.0355
RightLeg  13.3915 -1.63958 -0.27942
RightFoot  -3.37044 -0.00757098 0.120243
RightToes  -43.7773 -0.24934 -0.33545
253
root  1.80962 33.6079 13.2972 6.72376 -10.6797 1.45712
LeftUpLeg  -22.5324 4.71614 3.34369
LeftLeg  27.024 -5.49423 -2.36928
LeftFoot  -0.0749004 -5.52238e-006 -0.00845722
LeftToes  -24.6301 1.85109e-006 5.31342e-008
Spine  3.09672 8.18564 -1.38349
Spine1  5.89612 16.5374 -2.48738
RightShoulder  0.0568518 3.8922 11.3039
RightArm  -31.7057 -17.1926 66.9559
RightForeArm  34.5955 27.0627 5.15896
RightHand  1.06756 -13.0669 -8.92687
LeftShoulder1  0.00731617 6.26133 -9.86521
LeftArm  -49.5178 41.856 -70.4559
LeftForeArm  26.8331 -28.3181 -5.44493
LeftHand  -0.0876667 -1.78005 5.28929
HEad  -24.6904 -1.8246 4.45218
RightUpLeg  -4.47232 -1.78605 -12.5496
RightLeg  13.5704 3.34779 0.584171
RightFoot  -1.27832 -0.00485754 -0.0579023
RightToes  -45.8254 -0.26661 -0.345609
254
root  2.58922 33.712 13.4227 7.04437 -20.9208 0.548703
LeftUpLeg  -21.2879 9.81006 2.86399
LeftLeg  27.3813 -0.75313 -0.333922
LeftFoot  -1.72792 7.89456e-005 0.00522601
LeftToes  -22.4072 1.85109e-006 5.31342e-008
Spine  3.34343 7.82367 -0.39025
Spine1  6.48587 15.7604 -0.476911
RightShoulder  0.0667331 3.88678 11.7238
RightArm  -28.0314 -16.4442 64.5162
RightForeArm  33.2481 33.0895 6.59268
RightHand  1.20345 -13.7421 -9.58781
LeftShoulder1  0.0111836 4.64324 -9.64372
LeftArm  -55.0856 45.2619 -72.2011
LeftForeArm  27.4566 -29.1603 -5.63903
LeftHand  -0.110434 -2.90423 3.99394
HEad  -25.8553 7.01847 0.282623
RightUpLeg  -8.71886 0.0520706 -13.5792
RightLeg  14.7935 9.19408 1.79928
RightFoot  1.91854 0.000764436 0.331772
RightToes  -47.7574 -0.283226 -0.354621
255
root  3.37079 33.8885 13.5201 7.59597 -31.8244 -0.186601
LeftUpLeg  -19.735 14.5578 2.14481
LeftLeg  26.4172 4.63256 1.93516
LeftFoot  -2.29009 -0.00455413 -0.227858
LeftToes  -20.233 1.85109e-006 5.31342e-008
Spine  3.94957 6.43072 0.69244
Spine1  7.71152 12.9241 1.62027
RightShoulder  0.0882946 4.06902 11.7787
RightArm  -23.3928 -13.0536 63.1884
RightForeArm  32.1436 38.6294 8.1022
RightHand  1.25809 -14.0897 -9.77975
LeftShoulder1  0.0172512 3.41929 -9.94018
LeftArm  -55.7887 46.6839 -66.184
LeftForeArm  32.2144 -28.3671 -5.45336
LeftHand  -0.120439 -4.55368 2.6626
HEad  -27.9202 19.5566 -5.86699
RightUpLeg  -13.8045 3.52604 -14.0226
RightLeg  15.9905 11.38 2.46762
RightFoot  6.52062 -0.0554327 1.35049
RightToes  -50.0719 -0.303516 -0.364671
256
root  4.12064 34.0953 13.5816 8.77436 -42.8713 -0.886119
LeftUpLeg  -18.3398 19.4417 1.12855
LeftLeg  23.9825 10.026 3.68205
LeftFoot  -1.73197 -0.00559723 -0.370306
LeftToes  -18.6313 1.85109e-006 5.31342e-008
Spine  4.5987 4.40635 1.6035
Spine1  8.8989 8.82746 3.2108
RightShoulder  0.110327 3.88628 11.4949
RightArm  -16.93 -7.023 63.7243
RightForeArm  30.2758 41.2825 8.91306
RightHand  1.40807 -14.394 -10.7415
LeftShoulder1  0.0253721 2.82942 -9.78949
LeftArm  -59.7573 46.1099 -52.6623
LeftForeArm  37.6801 -26.9908 -5.13745
LeftHand  -0.200516 -2.45574 8.9899
HEad  -31.8767 33.3703 -14.0216
RightUpLeg  -19.3124 4.82878 -13.7405
RightLeg  16.582 14.5467 3.29621
RightFoot  11.8748 -0.28761 3.14232
RightToes  -50.9362 -0.311195 -0.368214
257
root  4.84174 34.2817 13.5637 10.6737 -52.4898 -2.24149
LeftUpLeg  -17.7741 23.3564 0.42094
LeftLeg  21.8823 14.8013 4.79884
LeftFoot  -0.839666 -0.00216071 -0.29488
LeftToes  -16.6776 1.85109e-006 5.31342e-008
Spine  4.94271 2.50919 2.57363
Spine1  9.52436 5.02111 4.75464
RightShoulder  0.124178 3.40568 10.9732
RightArm  -11.2426 -1.58104 65.3556
RightForeArm  30.2268 42.3341 9.25304
RightHand  1.22144 -13.8597 -9.6498
LeftShoulder1  0.0310342 3.63363 -9.20596
LeftArm  -68.9565 40.4346 -33.2799
LeftForeArm  40.2183 -27.0785 -5.15416
LeftHand  0.451385 2.58567 19.3806
HEad  -35.6352 44.6331 -22.9711
RightUpLeg  -23.935 5.70387 -12.3232
RightLeg  16.185 16.8563 3.68456
RightFoot  17.399 -0.757082 5.32217
RightToes  -49.6519 -0.299805 -0.362909
258
root  5.51395 34.4017 13.5334 11.7268 -58.9823 -3.75116
LeftUpLeg  -16.9842 25.0211 0.230451
LeftLeg  20.7698 18.6334 5.60735
LeftFoot  -0.181086 -0.00016984 -0.107482
LeftToes  -14.6419 1.85109e-006 5.31342e-008
Spine  5.24273 1.7184 3.19543
Spine1  10.2905 3.54154 5.58309
RightShoulder  0.129839 3.33765 11.6932
RightArm  -10.4068 0.278419 65.2527
RightForeArm  31.0903 44.6716 10.0526
RightHand  1.02982 -13.3088 -8.43581
LeftShoulder1  0.0166033 5.78408 -4.85496
LeftArm  -83.7266 21.4223 -18.6016
LeftForeArm  53.4064 -22.6236 -4.17528
LeftHand  -0.0622034 -0.372868 18.9189
HEad  -35.0968 50.5103 -27.0195
RightUpLeg  -26.4219 5.85308 -10.5182
RightLeg  16.2134 17.6695 3.86555
RightFoot  21.6208 -1.25334 6.93418
RightToes  -46.6253 -0.273452 -0.349408
